<?xml version="1.0" encoding="UTF-8"?><svg id="Layer_1" xmlns="http://www.w3.org/2000/svg" viewBox="0 0 252.51 290.8"><defs><style>.cls-1{fill:#64edff;}</style></defs><path class="cls-1" d="M127.39,0l-6.08,1.4L0,70.56l.84,150.19c42.45,22.64,82.77,50.72,126.59,70.05l123.95-69.83,1.13-150.29L127.39,0ZM125.44,29.2l88.76,50.03c.04,2.76-19.36,14.02-23.45,13.11l-63.16-36.87-65.75,36.83-26.04-11.81L125.44,29.2ZM180.63,114.28v46.73c-5.93-3.15-41.38-21.02-41.38-24.66v-42.83l41.38,20.77ZM113.38,140.24c-1.23,1.97-35.65,18.6-41.38,20.77v-45.43c0-2.42,36.15-20.84,41.38-24.66-1.77,8.16,2.37,45.52,0,49.32ZM113.38,250.62c-.48,3.58,1.45,4.49-3.84,3.81l-86.69-49.3v-103.84c3.57,3.17,25.58,13.1,25.97,14.72,3.54,14.76-4.58,66.84,1.15,76.18l60.85,34.97c3.79,4.23,3.34,17.62,2.55,23.45ZM84.91,183.07c9.48-2.11,32.99-21.7,40.08-21.95,2.25-.08,38.67,18.97,40.11,20.7.98,1.18.64,3.63-1.57,5.32-2.34,1.79-33.89,19.54-35.93,19.68-5.56.37-34.35-21.4-42.69-23.75ZM229.78,203.84l-89.25,53.2c-1.52-7.04-2.76-20.15-.78-26.74,2.31-7.71,54.02-31.41,63.62-38.67,4.95-8.54-3.71-62,.96-75.64,1.39-4.05,20.2-12.68,25.45-14.69v102.54Z"/></svg>